# xmcd CD database file
#
# Track frame offsets:
#	150
#	22871
#	43099
#	65664
#	92722
#	119055
#	136427
#	155618
#	172464
#	198404
#	222940
#
# Disc length: 3243 seconds
#
# Revision: 0
# Processed by: cddbd v1.5.2PL0 Copyright (c) Steve Scherf et al.
# Submitted via: CDex 1.70beta2
#
DISCID=a90ca90b
DTITLE=31. Internationales Dixieland-Festival Dresden - Dixieland-Festival Dresden
DYEAR=2001
DGENRE=Jazz
TTITLE0=Dresden All Stars - Sweet Georgia Brown
TTITLE1=Original Storyville Jazzband - There´ll Be Some Changes Made
TTITLE2=JHazz Collegium Berlin - Makin´ Whoopee
TTITLE3=Milano Jazz Gang - Once In A While
TTITLE4=Vestera Jazzvarek - When I Leave The World Behind Me
TTITLE5=Dresden All Stars - Mood Indigo
TTITLE6=The Cluskey Hopkins Jazzband - I´m Gonna Sit Right Down An Write Myself A Letter
TTITLE7=Hot Jazz Band - Swanee
TTITLE8=Paris Swing Orchestra - Solitude
TTITLE9=T.J. Johnson´s Bourbon Kick - Red Wing
TTITLE10=Dresden All Stars - Ottokar
EXTD=YEAR: 2001
EXTT0=
EXTT1=
EXTT2=
EXTT3=
EXTT4=
EXTT5=
EXTT6=
EXTT7=
EXTT8=
EXTT9=
EXTT10=
PLAYORDER=
